{
  "asset": {
    "generator": "Khronos glTF Blender I/O v5.1.20",
    "version": "2.0"
  },
  "extensionsUsed": [
    "KHR_texture_basisu",
    "KHR_lights_punctual"
  ],
  "extensionsRequired": [
    "KHR_texture_basisu",
    "KHR_lights_punctual"
  ],
  "extensions": {
    "KHR_lights_punctual": {
      "lights": [
        {
          "color": [
            1,
            1,
            1
          ],
          "intensity": 54351.41306588226,
          "type": "point",
          "name": "Point"
        }
      ]
    }
  },
  "scene": 0,
  "scenes": [
    {
      "name": "Scene",
      "nodes": [
        0,
        1
      ]
    }
  ],
  "nodes": [
    {
      "mesh": 0,
      "name": "Mesh_0",
      "scale": [
        0.00800000037997961,
        0.00800000037997961,
        0.00800000037997961
      ]
    },
    {
      "extensions": {
        "KHR_lights_punctual": {
          "light": 0
        }
      },
      "name": "Point",
      "translation": [
        0,
        0,
        1.0638008117675781
      ]
    }
  ],
  "materials": [
    {
      "alphaMode": "MASK",
      "doubleSided": true,
      "name": "Material_0",
      "normalTexture": {
        "index": 0
      },
      "pbrMetallicRoughness": {
        "baseColorFactor": [
          0.5879999995231628,
          0.5879999995231628,
          0.5879999995231628,
          1
        ],
        "baseColorTexture": {
          "index": 1
        },
        "metallicRoughnessTexture": {
          "index": 2
        }
      }
    },
    {
      "alphaMode": "MASK",
      "doubleSided": true,
      "name": "Material_3",
      "normalTexture": {
        "index": 3
      },
      "pbrMetallicRoughness": {
        "baseColorFactor": [
          0.5879999995231628,
          0.5879999995231628,
          0.5879999995231628,
          1
        ],
        "baseColorTexture": {
          "index": 4
        },
        "metallicRoughnessTexture": {
          "index": 5
        }
      }
    },
    {
      "name": "Material_1",
      "normalTexture": {
        "index": 6
      },
      "pbrMetallicRoughness": {
        "baseColorFactor": [
          0.5879999995231628,
          0.5879999995231628,
          0.5879999995231628,
          1
        ],
        "baseColorTexture": {
          "index": 7
        },
        "metallicRoughnessTexture": {
          "index": 8
        }
      }
    },
    {
      "name": "Material_4",
      "normalTexture": {
        "index": 9
      },
      "pbrMetallicRoughness": {
        "baseColorFactor": [
          0.5879999995231628,
          0.5879999995231628,
          0.5879999995231628,
          1
        ],
        "baseColorTexture": {
          "index": 10
        },
        "metallicRoughnessTexture": {
          "index": 11
        }
      }
    },
    {
      "name": "Material_5",
      "normalTexture": {
        "index": 12
      },
      "pbrMetallicRoughness": {
        "baseColorFactor": [
          0.5879999995231628,
          0.5879999995231628,
          0.5879999995231628,
          1
        ],
        "baseColorTexture": {
          "index": 13
        },
        "metallicRoughnessTexture": {
          "index": 14
        }
      }
    },
    {
      "name": "Material_6",
      "normalTexture": {
        "index": 15
      },
      "pbrMetallicRoughness": {
        "baseColorFactor": [
          0.5879999995231628,
          0.5879999995231628,
          0.5879999995231628,
          1
        ],
        "baseColorTexture": {
          "index": 16
        },
        "metallicRoughnessTexture": {
          "index": 17
        }
      }
    },
    {
      "name": "Material_7",
      "normalTexture": {
        "index": 18
      },
      "pbrMetallicRoughness": {
        "baseColorFactor": [
          0.5879999995231628,
          0.5879999995231628,
          0.5879999995231628,
          1
        ],
        "baseColorTexture": {
          "index": 19
        },
        "metallicRoughnessTexture": {
          "index": 20
        }
      }
    },
    {
      "name": "Material_8",
      "normalTexture": {
        "index": 21
      },
      "pbrMetallicRoughness": {
        "baseColorFactor": [
          0.5879999995231628,
          0.5879999995231628,
          0.5879999995231628,
          1
        ],
        "baseColorTexture": {
          "index": 22
        },
        "metallicRoughnessTexture": {
          "index": 23
        }
      }
    },
    {
      "name": "Material_9",
      "normalTexture": {
        "index": 24
      },
      "pbrMetallicRoughness": {
        "baseColorFactor": [
          0.5879999995231628,
          0.5879999995231628,
          0.5879999995231628,
          1
        ],
        "baseColorTexture": {
          "index": 25
        },
        "metallicRoughnessTexture": {
          "index": 26
        }
      }
    },
    {
      "name": "Material_10",
      "normalTexture": {
        "index": 27
      },
      "pbrMetallicRoughness": {
        "baseColorFactor": [
          0.5879999995231628,
          0.5879999995231628,
          0.5879999995231628,
          1
        ],
        "baseColorTexture": {
          "index": 28
        },
        "metallicRoughnessTexture": {
          "index": 29
        }
      }
    },
    {
      "name": "Material_11",
      "normalTexture": {
        "index": 30
      },
      "pbrMetallicRoughness": {
        "baseColorFactor": [
          0.5879999995231628,
          0.5879999995231628,
          0.5879999995231628,
          1
        ],
        "baseColorTexture": {
          "index": 31
        },
        "metallicRoughnessTexture": {
          "index": 32
        }
      }
    },
    {
      "name": "Material_12",
      "normalTexture": {
        "index": 33
      },
      "pbrMetallicRoughness": {
        "baseColorFactor": [
          0.5879999995231628,
          0.5879999995231628,
          0.5879999995231628,
          1
        ],
        "baseColorTexture": {
          "index": 34
        },
        "metallicRoughnessTexture": {
          "index": 35
        }
      }
    },
    {
      "name": "Material_2",
      "pbrMetallicRoughness": {
        "baseColorFactor": [
          0.5879999995231628,
          0.5879999995231628,
          0.5879999995231628,
          1
        ],
        "baseColorTexture": {
          "index": 36
        },
        "metallicFactor": 0
      }
    },
    {
      "name": "Material_13",
      "normalTexture": {
        "index": 37
      },
      "pbrMetallicRoughness": {
        "baseColorFactor": [
          0.5879999995231628,
          0.5879999995231628,
          0.5879999995231628,
          1
        ],
        "baseColorTexture": {
          "index": 38
        },
        "metallicRoughnessTexture": {
          "index": 39
        }
      }
    },
    {
      "name": "Material_14",
      "normalTexture": {
        "index": 40
      },
      "pbrMetallicRoughness": {
        "baseColorFactor": [
          0.5879999995231628,
          0.5879999995231628,
          0.5879999995231628,
          1
        ],
        "baseColorTexture": {
          "index": 41
        },
        "metallicRoughnessTexture": {
          "index": 42
        }
      }
    },
    {
      "name": "Material_15",
      "normalTexture": {
        "index": 43
      },
      "pbrMetallicRoughness": {
        "baseColorFactor": [
          0.5879999995231628,
          0.5879999995231628,
          0.5879999995231628,
          1
        ],
        "baseColorTexture": {
          "index": 44
        },
        "metallicRoughnessTexture": {
          "index": 45
        }
      }
    },
    {
      "name": "Material_16",
      "normalTexture": {
        "index": 46
      },
      "pbrMetallicRoughness": {
        "baseColorFactor": [
          0.5879999995231628,
          0.5879999995231628,
          0.5879999995231628,
          1
        ],
        "baseColorTexture": {
          "index": 47
        },
        "metallicRoughnessTexture": {
          "index": 48
        }
      }
    },
    {
      "name": "Material_17",
      "normalTexture": {
        "index": 49
      },
      "pbrMetallicRoughness": {
        "baseColorFactor": [
          0.5879999995231628,
          0.5879999995231628,
          0.5879999995231628,
          1
        ],
        "baseColorTexture": {
          "index": 50
        },
        "metallicRoughnessTexture": {
          "index": 51
        }
      }
    },
    {
      "name": "Material_18",
      "normalTexture": {
        "index": 52
      },
      "pbrMetallicRoughness": {
        "baseColorFactor": [
          0.5879999995231628,
          0.5879999995231628,
          0.5879999995231628,
          1
        ],
        "baseColorTexture": {
          "index": 53
        },
        "metallicRoughnessTexture": {
          "index": 54
        }
      }
    },
    {
      "name": "Material_19",
      "normalTexture": {
        "index": 55
      },
      "pbrMetallicRoughness": {
        "baseColorFactor": [
          0.5879999995231628,
          0.5879999995231628,
          0.5879999995231628,
          1
        ],
        "baseColorTexture": {
          "index": 56
        },
        "metallicRoughnessTexture": {
          "index": 57
        }
      }
    },
    {
      "alphaMode": "MASK",
      "doubleSided": true,
      "name": "Material_20",
      "normalTexture": {
        "index": 58
      },
      "pbrMetallicRoughness": {
        "baseColorFactor": [
          0.5879999995231628,
          0.5879999995231628,
          0.5879999995231628,
          1
        ],
        "baseColorTexture": {
          "index": 59
        },
        "metallicRoughnessTexture": {
          "index": 60
        }
      }
    },
    {
      "name": "Material_21",
      "normalTexture": {
        "index": 61
      },
      "pbrMetallicRoughness": {
        "baseColorFactor": [
          0.5879999995231628,
          0.5879999995231628,
          0.5879999995231628,
          1
        ],
        "baseColorTexture": {
          "index": 62
        },
        "metallicRoughnessTexture": {
          "index": 63
        }
      }
    },
    {
      "name": "Material_22",
      "normalTexture": {
        "index": 64
      },
      "pbrMetallicRoughness": {
        "baseColorFactor": [
          0.5879999995231628,
          0.5879999995231628,
          0.5879999995231628,
          1
        ],
        "baseColorTexture": {
          "index": 65
        },
        "metallicRoughnessTexture": {
          "index": 66
        }
      }
    },
    {
      "name": "Material_23",
      "normalTexture": {
        "index": 67
      },
      "pbrMetallicRoughness": {
        "baseColorFactor": [
          0.5879999995231628,
          0.5879999995231628,
          0.5879999995231628,
          1
        ],
        "baseColorTexture": {
          "index": 68
        },
        "metallicRoughnessTexture": {
          "index": 69
        }
      }
    },
    {
      "name": "Material_24",
      "normalTexture": {
        "index": 70
      },
      "pbrMetallicRoughness": {
        "baseColorFactor": [
          0.5879999995231628,
          0.5879999995231628,
          0.5879999995231628,
          1
        ],
        "baseColorTexture": {
          "index": 71
        },
        "metallicRoughnessTexture": {
          "index": 72
        }
      }
    }
  ],
  "meshes": [
    {
      "name": "Mesh_0",
      "primitives": [
        {
          "attributes": {
            "POSITION": 0,
            "NORMAL": 1,
            "TEXCOORD_0": 2,
            "TANGENT": 3
          },
          "indices": 4,
          "material": 0
        },
        {
          "attributes": {
            "POSITION": 5,
            "NORMAL": 6,
            "TEXCOORD_0": 7,
            "TANGENT": 8
          },
          "indices": 9,
          "material": 1
        },
        {
          "attributes": {
            "POSITION": 10,
            "NORMAL": 11,
            "TEXCOORD_0": 12,
            "TANGENT": 13
          },
          "indices": 14,
          "material": 2
        },
        {
          "attributes": {
            "POSITION": 15,
            "NORMAL": 16,
            "TEXCOORD_0": 17,
            "TANGENT": 18
          },
          "indices": 19,
          "material": 3
        },
        {
          "attributes": {
            "POSITION": 20,
            "NORMAL": 21,
            "TEXCOORD_0": 22,
            "TANGENT": 23
          },
          "indices": 24,
          "material": 4
        },
        {
          "attributes": {
            "POSITION": 25,
            "NORMAL": 26,
            "TEXCOORD_0": 27,
            "TANGENT": 28
          },
          "indices": 29,
          "material": 5
        },
        {
          "attributes": {
            "POSITION": 30,
            "NORMAL": 31,
            "TEXCOORD_0": 32,
            "TANGENT": 33
          },
          "indices": 34,
          "material": 6
        },
        {
          "attributes": {
            "POSITION": 35,
            "NORMAL": 36,
            "TEXCOORD_0": 37,
            "TANGENT": 38
          },
          "indices": 39,
          "material": 7
        },
        {
          "attributes": {
            "POSITION": 40,
            "NORMAL": 41,
            "TEXCOORD_0": 42,
            "TANGENT": 43
          },
          "indices": 44,
          "material": 8
        },
        {
          "attributes": {
            "POSITION": 45,
            "NORMAL": 46,
            "TEXCOORD_0": 47,
            "TANGENT": 48
          },
          "indices": 49,
          "material": 9
        },
        {
          "attributes": {
            "POSITION": 50,
            "NORMAL": 51,
            "TEXCOORD_0": 52,
            "TANGENT": 53
          },
          "indices": 54,
          "material": 10
        },
        {
          "attributes": {
            "POSITION": 55,
            "NORMAL": 56,
            "TEXCOORD_0": 57,
            "TANGENT": 58
          },
          "indices": 59,
          "material": 11
        },
        {
          "attributes": {
            "POSITION": 60,
            "NORMAL": 61,
            "TEXCOORD_0": 62,
            "TANGENT": 63
          },
          "indices": 64,
          "material": 12
        },
        {
          "attributes": {
            "POSITION": 65,
            "NORMAL": 66,
            "TEXCOORD_0": 67,
            "TANGENT": 68
          },
          "indices": 69,
          "material": 13
        },
        {
          "attributes": {
            "POSITION": 70,
            "NORMAL": 71,
            "TEXCOORD_0": 72,
            "TANGENT": 73
          },
          "indices": 74,
          "material": 14
        },
        {
          "attributes": {
            "POSITION": 75,
            "NORMAL": 76,
            "TEXCOORD_0": 77,
            "TANGENT": 78
          },
          "indices": 79,
          "material": 15
        },
        {
          "attributes": {
            "POSITION": 80,
            "NORMAL": 81,
            "TEXCOORD_0": 82,
            "TANGENT": 83
          },
          "indices": 84,
          "material": 16
        },
        {
          "attributes": {
            "POSITION": 85,
            "NORMAL": 86,
            "TEXCOORD_0": 87,
            "TANGENT": 88
          },
          "indices": 89,
          "material": 17
        },
        {
          "attributes": {
            "POSITION": 90,
            "NORMAL": 91,
            "TEXCOORD_0": 92,
            "TANGENT": 93
          },
          "indices": 94,
          "material": 18
        },
        {
          "attributes": {
            "POSITION": 95,
            "NORMAL": 96,
            "TEXCOORD_0": 97,
            "TANGENT": 98
          },
          "indices": 89,
          "material": 19
        },
        {
          "attributes": {
            "POSITION": 99,
            "NORMAL": 100,
            "TEXCOORD_0": 101,
            "TANGENT": 102
          },
          "indices": 103,
          "material": 20
        },
        {
          "attributes": {
            "POSITION": 104,
            "NORMAL": 105,
            "TEXCOORD_0": 106,
            "TANGENT": 107
          },
          "indices": 108,
          "material": 21
        },
        {
          "attributes": {
            "POSITION": 109,
            "NORMAL": 110,
            "TEXCOORD_0": 111,
            "TANGENT": 112
          },
          "indices": 113,
          "material": 22
        },
        {
          "attributes": {
            "POSITION": 114,
            "NORMAL": 115,
            "TEXCOORD_0": 116,
            "TANGENT": 117
          },
          "indices": 118,
          "material": 23
        },
        {
          "attributes": {
            "POSITION": 119,
            "NORMAL": 120,
            "TEXCOORD_0": 121,
            "TANGENT": 122
          },
          "indices": 123,
          "material": 24
        }
      ]
    }
  ],
  "textures": [
    {
      "extensions": {
        "KHR_texture_basisu": {
          "source": 0
        }
      },
      "sampler": 0
    },
    {
      "extensions": {
        "KHR_texture_basisu": {
          "source": 1
        }
      },
      "sampler": 0
    },
    {
      "extensions": {
        "KHR_texture_basisu": {
          "source": 2
        }
      },
      "sampler": 0
    },
    {
      "extensions": {
        "KHR_texture_basisu": {
          "source": 3
        }
      },
      "sampler": 0
    },
    {
      "extensions": {
        "KHR_texture_basisu": {
          "source": 4
        }
      },
      "sampler": 0
    },
    {
      "extensions": {
        "KHR_texture_basisu": {
          "source": 5
        }
      },
      "sampler": 0
    },
    {
      "extensions": {
        "KHR_texture_basisu": {
          "source": 6
        }
      },
      "sampler": 0
    },
    {
      "extensions": {
        "KHR_texture_basisu": {
          "source": 7
        }
      },
      "sampler": 0
    },
    {
      "extensions": {
        "KHR_texture_basisu": {
          "source": 8
        }
      },
      "sampler": 0
    },
    {
      "extensions": {
        "KHR_texture_basisu": {
          "source": 9
        }
      },
      "sampler": 0
    },
    {
      "extensions": {
        "KHR_texture_basisu": {
          "source": 10
        }
      },
      "sampler": 0
    },
    {
      "extensions": {
        "KHR_texture_basisu": {
          "source": 11
        }
      },
      "sampler": 0
    },
    {
      "extensions": {
        "KHR_texture_basisu": {
          "source": 12
        }
      },
      "sampler": 0
    },
    {
      "extensions": {
        "KHR_texture_basisu": {
          "source": 13
        }
      },
      "sampler": 0
    },
    {
      "extensions": {
        "KHR_texture_basisu": {
          "source": 14
        }
      },
      "sampler": 0
    },
    {
      "extensions": {
        "KHR_texture_basisu": {
          "source": 15
        }
      },
      "sampler": 0
    },
    {
      "extensions": {
        "KHR_texture_basisu": {
          "source": 16
        }
      },
      "sampler": 0
    },
    {
      "extensions": {
        "KHR_texture_basisu": {
          "source": 17
        }
      },
      "sampler": 0
    },
    {
      "extensions": {
        "KHR_texture_basisu": {
          "source": 18
        }
      },
      "sampler": 0
    },
    {
      "extensions": {
        "KHR_texture_basisu": {
          "source": 19
        }
      },
      "sampler": 0
    },
    {
      "extensions": {
        "KHR_texture_basisu": {
          "source": 20
        }
      },
      "sampler": 0
    },
    {
      "extensions": {
        "KHR_texture_basisu": {
          "source": 21
        }
      },
      "sampler": 0
    },
    {
      "extensions": {
        "KHR_texture_basisu": {
          "source": 22
        }
      },
      "sampler": 0
    },
    {
      "extensions": {
        "KHR_texture_basisu": {
          "source": 23
        }
      },
      "sampler": 0
    },
    {
      "extensions": {
        "KHR_texture_basisu": {
          "source": 24
        }
      },
      "sampler": 0
    },
    {
      "extensions": {
        "KHR_texture_basisu": {
          "source": 25
        }
      },
      "sampler": 0
    },
    {
      "extensions": {
        "KHR_texture_basisu": {
          "source": 26
        }
      },
      "sampler": 0
    },
    {
      "extensions": {
        "KHR_texture_basisu": {
          "source": 27
        }
      },
      "sampler": 0
    },
    {
      "extensions": {
        "KHR_texture_basisu": {
          "source": 28
        }
      },
      "sampler": 0
    },
    {
      "extensions": {
        "KHR_texture_basisu": {
          "source": 29
        }
      },
      "sampler": 0
    },
    {
      "extensions": {
        "KHR_texture_basisu": {
          "source": 30
        }
      },
      "sampler": 0
    },
    {
      "extensions": {
        "KHR_texture_basisu": {
          "source": 31
        }
      },
      "sampler": 0
    },
    {
      "extensions": {
        "KHR_texture_basisu": {
          "source": 32
        }
      },
      "sampler": 0
    },
    {
      "extensions": {
        "KHR_texture_basisu": {
          "source": 33
        }
      },
      "sampler": 0
    },
    {
      "extensions": {
        "KHR_texture_basisu": {
          "source": 34
        }
      },
      "sampler": 0
    },
    {
      "extensions": {
        "KHR_texture_basisu": {
          "source": 35
        }
      },
      "sampler": 0
    },
    {
      "extensions": {
        "KHR_texture_basisu": {
          "source": 36
        }
      },
      "sampler": 0
    },
    {
      "extensions": {
        "KHR_texture_basisu": {
          "source": 37
        }
      },
      "sampler": 0
    },
    {
      "extensions": {
        "KHR_texture_basisu": {
          "source": 38
        }
      },
      "sampler": 0
    },
    {
      "extensions": {
        "KHR_texture_basisu": {
          "source": 39
        }
      },
      "sampler": 0
    },
    {
      "extensions": {
        "KHR_texture_basisu": {
          "source": 40
        }
      },
      "sampler": 0
    },
    {
      "extensions": {
        "KHR_texture_basisu": {
          "source": 41
        }
      },
      "sampler": 0
    },
    {
      "extensions": {
        "KHR_texture_basisu": {
          "source": 42
        }
      },
      "sampler": 0
    },
    {
      "extensions": {
        "KHR_texture_basisu": {
          "source": 43
        }
      },
      "sampler": 0
    },
    {
      "extensions": {
        "KHR_texture_basisu": {
          "source": 44
        }
      },
      "sampler": 0
    },
    {
      "extensions": {
        "KHR_texture_basisu": {
          "source": 42
        }
      },
      "sampler": 0
    },
    {
      "extensions": {
        "KHR_texture_basisu": {
          "source": 45
        }
      },
      "sampler": 0
    },
    {
      "extensions": {
        "KHR_texture_basisu": {
          "source": 46
        }
      },
      "sampler": 0
    },
    {
      "extensions": {
        "KHR_texture_basisu": {
          "source": 42
        }
      },
      "sampler": 0
    },
    {
      "extensions": {
        "KHR_texture_basisu": {
          "source": 47
        }
      },
      "sampler": 0
    },
    {
      "extensions": {
        "KHR_texture_basisu": {
          "source": 48
        }
      },
      "sampler": 0
    },
    {
      "extensions": {
        "KHR_texture_basisu": {
          "source": 49
        }
      },
      "sampler": 0
    },
    {
      "extensions": {
        "KHR_texture_basisu": {
          "source": 50
        }
      },
      "sampler": 0
    },
    {
      "extensions": {
        "KHR_texture_basisu": {
          "source": 51
        }
      },
      "sampler": 0
    },
    {
      "extensions": {
        "KHR_texture_basisu": {
          "source": 49
        }
      },
      "sampler": 0
    },
    {
      "extensions": {
        "KHR_texture_basisu": {
          "source": 52
        }
      },
      "sampler": 0
    },
    {
      "extensions": {
        "KHR_texture_basisu": {
          "source": 53
        }
      },
      "sampler": 0
    },
    {
      "extensions": {
        "KHR_texture_basisu": {
          "source": 49
        }
      },
      "sampler": 0
    },
    {
      "extensions": {
        "KHR_texture_basisu": {
          "source": 54
        }
      },
      "sampler": 0
    },
    {
      "extensions": {
        "KHR_texture_basisu": {
          "source": 55
        }
      },
      "sampler": 0
    },
    {
      "extensions": {
        "KHR_texture_basisu": {
          "source": 56
        }
      },
      "sampler": 0
    },
    {
      "extensions": {
        "KHR_texture_basisu": {
          "source": 57
        }
      },
      "sampler": 0
    },
    {
      "extensions": {
        "KHR_texture_basisu": {
          "source": 58
        }
      },
      "sampler": 0
    },
    {
      "extensions": {
        "KHR_texture_basisu": {
          "source": 59
        }
      },
      "sampler": 0
    },
    {
      "extensions": {
        "KHR_texture_basisu": {
          "source": 60
        }
      },
      "sampler": 0
    },
    {
      "extensions": {
        "KHR_texture_basisu": {
          "source": 61
        }
      },
      "sampler": 0
    },
    {
      "extensions": {
        "KHR_texture_basisu": {
          "source": 62
        }
      },
      "sampler": 0
    },
    {
      "extensions": {
        "KHR_texture_basisu": {
          "source": 63
        }
      },
      "sampler": 0
    },
    {
      "extensions": {
        "KHR_texture_basisu": {
          "source": 64
        }
      },
      "sampler": 0
    },
    {
      "extensions": {
        "KHR_texture_basisu": {
          "source": 65
        }
      },
      "sampler": 0
    },
    {
      "extensions": {
        "KHR_texture_basisu": {
          "source": 66
        }
      },
      "sampler": 0
    },
    {
      "extensions": {
        "KHR_texture_basisu": {
          "source": 67
        }
      },
      "sampler": 0
    },
    {
      "extensions": {
        "KHR_texture_basisu": {
          "source": 68
        }
      },
      "sampler": 0
    }
  ],
  "images": [
    {
      "name": "8773302468495022225",
      "uri": "Sponza_img0.ktx2"
    },
    {
      "name": "5061699253647017043",
      "uri": "Sponza_img1.ktx2"
    },
    {
      "name": "11872827283454512094",
      "uri": "Sponza_img2.ktx2"
    },
    {
      "name": "12501374198249454378",
      "uri": "Sponza_img3.ktx2"
    },
    {
      "name": "8006627369776289000",
      "uri": "Sponza_img4.ktx2"
    },
    {
      "name": "715093869573992647",
      "uri": "Sponza_img5.ktx2"
    },
    {
      "name": "4477655471536070370",
      "uri": "Sponza_img6.ktx2"
    },
    {
      "name": "7268504077753552595",
      "uri": "Sponza_img7.ktx2"
    },
    {
      "name": "8503262930880235456",
      "uri": "Sponza_img8.ktx2"
    },
    {
      "name": "13982482287905699490",
      "uri": "Sponza_img9.ktx2"
    },
    {
      "name": "8750083169368950601",
      "uri": "Sponza_img10.ktx2"
    },
    {
      "name": "16885566240357350108",
      "uri": "Sponza_img11.ktx2"
    },
    {
      "name": "16299174074766089871",
      "uri": "Sponza_img12.ktx2"
    },
    {
      "name": "5792855332885324923",
      "uri": "Sponza_img13.ktx2"
    },
    {
      "name": "11968150294050148237",
      "uri": "Sponza_img14.ktx2"
    },
    {
      "name": "2051777328469649772",
      "uri": "Sponza_img15.ktx2"
    },
    {
      "name": "14650633544276105767",
      "uri": "Sponza_img16.ktx2"
    },
    {
      "name": "4871783166746854860",
      "uri": "Sponza_img17.ktx2"
    },
    {
      "name": "10388182081421875623",
      "uri": "Sponza_img18.ktx2"
    },
    {
      "name": "15295713303328085182",
      "uri": "Sponza_img19.ktx2"
    },
    {
      "name": "9916269861720640319",
      "uri": "Sponza_img20.ktx2"
    },
    {
      "name": "15722799267630235092",
      "uri": "Sponza_img21.ktx2"
    },
    {
      "name": "6047387724914829168",
      "uri": "Sponza_img22.ktx2"
    },
    {
      "name": "8051790464816141987",
      "uri": "Sponza_img23.ktx2"
    },
    {
      "name": "14267839433702832875",
      "uri": "Sponza_img24.ktx2"
    },
    {
      "name": "5823059166183034438",
      "uri": "Sponza_img25.ktx2"
    },
    {
      "name": "13824894030729245199",
      "uri": "Sponza_img26.ktx2"
    },
    {
      "name": "6667038893015345571",
      "uri": "Sponza_img27.ktx2"
    },
    {
      "name": "7441062115984513793",
      "uri": "Sponza_img28.ktx2"
    },
    {
      "name": "8114461559286000061",
      "uri": "Sponza_img29.ktx2"
    },
    {
      "name": "3628158980083700836",
      "uri": "Sponza_img30.ktx2"
    },
    {
      "name": "11490520546946913238",
      "uri": "Sponza_img31.ktx2"
    },
    {
      "name": "3455394979645218238",
      "uri": "Sponza_img32.ktx2"
    },
    {
      "name": "7645212358685992005",
      "uri": "Sponza_img33.ktx2"
    },
    {
      "name": "6151467286084645207",
      "uri": "Sponza_img34.ktx2"
    },
    {
      "name": "8783994986360286082",
      "uri": "Sponza_img35.ktx2"
    },
    {
      "name": "white",
      "uri": "Sponza_img36.ktx2"
    },
    {
      "name": "2299742237651021498",
      "uri": "Sponza_img37.ktx2"
    },
    {
      "name": "4975155472559461469",
      "uri": "Sponza_img38.ktx2"
    },
    {
      "name": "3371964815757888145",
      "uri": "Sponza_img39.ktx2"
    },
    {
      "name": "7056944414013900257",
      "uri": "Sponza_img40.ktx2"
    },
    {
      "name": "4675343432951571524",
      "uri": "Sponza_img41.ktx2"
    },
    {
      "name": "7815564343179553343",
      "uri": "Sponza_img42.ktx2"
    },
    {
      "name": "2374361008830720677",
      "uri": "Sponza_img43.ktx2"
    },
    {
      "name": "2775690330959970771",
      "uri": "Sponza_img44.ktx2"
    },
    {
      "name": "332936164838540657",
      "uri": "Sponza_img45.ktx2"
    },
    {
      "name": "2185409758123873465",
      "uri": "Sponza_img46.ktx2"
    },
    {
      "name": "6593109234861095314",
      "uri": "Sponza_img47.ktx2"
    },
    {
      "name": "17876391417123941155",
      "uri": "Sponza_img48.ktx2"
    },
    {
      "name": "466164707995436622",
      "uri": "Sponza_img49.ktx2"
    },
    {
      "name": "4601176305987539675",
      "uri": "Sponza_img50.ktx2"
    },
    {
      "name": "11474523244911310074",
      "uri": "Sponza_img51.ktx2"
    },
    {
      "name": "4910669866631290573",
      "uri": "Sponza_img52.ktx2"
    },
    {
      "name": "9288698199695299068",
      "uri": "Sponza_img53.ktx2"
    },
    {
      "name": "14170708867020035030",
      "uri": "Sponza_img54.ktx2"
    },
    {
      "name": "16275776544635328252",
      "uri": "Sponza_img55.ktx2"
    },
    {
      "name": "1219024358953944284",
      "uri": "Sponza_img56.ktx2"
    },
    {
      "name": "3827035219084910048",
      "uri": "Sponza_img57.ktx2"
    },
    {
      "name": "755318871556304029",
      "uri": "Sponza_img58.ktx2"
    },
    {
      "name": "2411100444841994089",
      "uri": "Sponza_img59.ktx2"
    },
    {
      "name": "10381718147657362067",
      "uri": "Sponza_img60.ktx2"
    },
    {
      "name": "8481240838833932244",
      "uri": "Sponza_img61.ktx2"
    },
    {
      "name": "17556969131407844942",
      "uri": "Sponza_img62.ktx2"
    },
    {
      "name": "759203620573749278",
      "uri": "Sponza_img63.ktx2"
    },
    {
      "name": "6772804448157695701",
      "uri": "Sponza_img64.ktx2"
    },
    {
      "name": "13196865903111448057",
      "uri": "Sponza_img65.ktx2"
    },
    {
      "name": "14118779221266351425",
      "uri": "Sponza_img66.ktx2"
    },
    {
      "name": "2969916736137545357",
      "uri": "Sponza_img67.ktx2"
    },
    {
      "name": "8747919177698443163",
      "uri": "Sponza_img68.ktx2"
    }
  ],
  "accessors": [
    {
      "bufferView": 0,
      "componentType": 5126,
      "count": 24162,
      "max": [
        551.2263793945312,
        341.1361999511719,
        225.1020965576172
      ],
      "min": [
        -680.2642211914062,
        -266.4422912597656,
        -28.04960060119629
      ],
      "type": "VEC3"
    },
    {
      "bufferView": 1,
      "componentType": 5126,
      "count": 24162,
      "type": "VEC3"
    },
    {
      "bufferView": 2,
      "componentType": 5126,
      "count": 24162,
      "type": "VEC2"
    },
    {
      "bufferView": 3,
      "componentType": 5126,
      "count": 24162,
      "type": "VEC4"
    },
    {
      "bufferView": 4,
      "componentType": 5123,
      "count": 94308,
      "type": "SCALAR"
    },
    {
      "bufferView": 5,
      "componentType": 5126,
      "count": 3932,
      "max": [
        861.8858032226562,
        261.83648681640625,
        73.12359619140625
      ],
      "min": [
        -992.9603881835938,
        -187.85159301757812,
        42.31909942626953
      ],
      "type": "VEC3"
    },
    {
      "bufferView": 6,
      "componentType": 5126,
      "count": 3932,
      "type": "VEC3"
    },
    {
      "bufferView": 7,
      "componentType": 5126,
      "count": 3932,
      "type": "VEC2"
    },
    {
      "bufferView": 8,
      "componentType": 5126,
      "count": 3932,
      "type": "VEC4"
    },
    {
      "bufferView": 9,
      "componentType": 5123,
      "count": 10416,
      "type": "SCALAR"
    },
    {
      "bufferView": 10,
      "componentType": 5126,
      "count": 9848,
      "max": [
        859.2954711914062,
        251.64309692382812,
        56.199501037597656
      ],
      "min": [
        -990.7388916015625,
        -179.31080627441406,
        -4.030700206756592
      ],
      "type": "VEC3"
    },
    {
      "bufferView": 11,
      "componentType": 5126,
      "count": 9848,
      "type": "VEC3"
    },
    {
      "bufferView": 12,
      "componentType": 5126,
      "count": 9848,
      "type": "VEC2"
    },
    {
      "bufferView": 13,
      "componentType": 5126,
      "count": 9848,
      "type": "VEC4"
    },
    {
      "bufferView": 14,
      "componentType": 5123,
      "count": 53064,
      "type": "SCALAR"
    },
    {
      "bufferView": 15,
      "componentType": 5126,
      "count": 2259,
      "max": [
        1299.8668212890625,
        163.38650512695312,
        758.5531005859375
      ],
      "min": [
        -1428.27490234375,
        -88.62689971923828,
        40.818599700927734
      ],
      "type": "VEC3"
    },
    {
      "bufferView": 16,
      "componentType": 5126,
      "count": 2259,
      "type": "VEC3"
    },
    {
      "bufferView": 17,
      "componentType": 5126,
      "count": 2259,
      "type": "VEC2"
    },
    {
      "bufferView": 18,
      "componentType": 5126,
      "count": 2259,
      "type": "VEC4"
    },
    {
      "bufferView": 19,
      "componentType": 5123,
      "count": 12258,
      "type": "SCALAR"
    },
    {
      "bufferView": 20,
      "componentType": 5126,
      "count": 1415,
      "max": [
        1746.69287109375,
        1139.030517578125,
        1347.19580078125
      ],
      "min": [
        -1866.98291015625,
        -1039.711181640625,
        -126.44249725341797
      ],
      "type": "VEC3"
    },
    {
      "bufferView": 21,
      "componentType": 5126,
      "count": 1415,
      "type": "VEC3"
    },
    {
      "bufferView": 22,
      "componentType": 5126,
      "count": 1415,
      "type": "VEC2"
    },
    {
      "bufferView": 23,
      "componentType": 5126,
      "count": 1415,
      "type": "VEC4"
    },
    {
      "bufferView": 24,
      "componentType": 5123,
      "count": 2388,
      "type": "SCALAR"
    },
    {
      "bufferView": 25,
      "componentType": 5126,
      "count": 13936,
      "max": [
        921.9354858398438,
        318.1059875488281,
        1275.01123046875
      ],
      "min": [
        -1052.875732421875,
        -245.81419372558594,
        211.39549255371094
      ],
      "type": "VEC3"
    },
    {
      "bufferView": 26,
      "componentType": 5126,
      "count": 13936,
      "type": "VEC3"
    },
    {
      "bufferView": 27,
      "componentType": 5126,
      "count": 13936,
      "type": "VEC2"
    },
    {
      "bufferView": 28,
      "componentType": 5126,
      "count": 13936,
      "type": "VEC4"
    },
    {
      "bufferView": 29,
      "componentType": 5123,
      "count": 30504,
      "type": "SCALAR"
    },
    {
      "bufferView": 30,
      "componentType": 5126,
      "count": 5967,
      "max": [
        1302.20166015625,
        645.1483154296875,
        1263.927978515625
      ],
      "min": [
        -1429.452392578125,
        -574.9027099609375,
        215.80360412597656
      ],
      "type": "VEC3"
    },
    {
      "bufferView": 31,
      "componentType": 5126,
      "count": 5967,
      "type": "VEC3"
    },
    {
      "bufferView": 32,
      "componentType": 5126,
      "count": 5967,
      "type": "VEC2"
    },
    {
      "bufferView": 33,
      "componentType": 5126,
      "count": 5967,
      "type": "VEC4"
    },
    {
      "bufferView": 34,
      "componentType": 5123,
      "count": 17628,
      "type": "SCALAR"
    },
    {
      "bufferView": 35,
      "componentType": 5126,
      "count": 3721,
      "max": [
        925.6038208007812,
        316.86920166015625,
        220.99710083007812
      ],
      "min": [
        -1057.22021484375,
        -246.61489868164062,
        -2.460700035095215
      ],
      "type": "VEC3"
    },
    {
      "bufferView": 36,
      "componentType": 5126,
      "count": 3721,
      "type": "VEC3"
    },
    {
      "bufferView": 37,
      "componentType": 5126,
      "count": 3721,
      "type": "VEC2"
    },
    {
      "bufferView": 38,
      "componentType": 5126,
      "count": 3721,
      "type": "VEC4"
    },
    {
      "bufferView": 39,
      "componentType": 5123,
      "count": 8448,
      "type": "SCALAR"
    },
    {
      "bufferView": 40,
      "componentType": 5126,
      "count": 23,
      "max": [
        1302.220947265625,
        645.4310302734375,
        415.5303039550781
      ],
      "min": [
        -1432.224365234375,
        -574.1851806640625,
        -2.506200075149536
      ],
      "type": "VEC3"
    },
    {
      "bufferView": 41,
      "componentType": 5126,
      "count": 23,
      "type": "VEC3"
    },
    {
      "bufferView": 42,
      "componentType": 5126,
      "count": 23,
      "type": "VEC2"
    },
    {
      "bufferView": 43,
      "componentType": 5126,
      "count": 23,
      "type": "VEC4"
    },
    {
      "bufferView": 44,
      "componentType": 5123,
      "count": 63,
      "type": "SCALAR"
    },
    {
      "bufferView": 45,
      "componentType": 5126,
      "count": 14982,
      "max": [
        1303.27197265625,
        646.9678955078125,
        695.3228149414062
      ],
      "min": [
        -1430.30517578125,
        -575.7255249023438,
        182.6522979736328
      ],
      "type": "VEC3"
    },
    {
      "bufferView": 46,
      "componentType": 5126,
      "count": 14982,
      "type": "VEC3"
    },
    {
      "bufferView": 47,
      "componentType": 5126,
      "count": 14982,
      "type": "VEC2"
    },
    {
      "bufferView": 48,
      "componentType": 5126,
      "count": 14982,
      "type": "VEC4"
    },
    {
      "bufferView": 49,
      "componentType": 5123,
      "count": 21264,
      "type": "SCALAR"
    },
    {
      "bufferView": 50,
      "componentType": 5126,
      "count": 1559,
      "max": [
        1315.5244140625,
        651.5385131835938,
        716.8505859375
      ],
      "min": [
        -509.68328857421875,
        -605.0136108398438,
        -2.2155001163482666
      ],
      "type": "VEC3"
    },
    {
      "bufferView": 51,
      "componentType": 5126,
      "count": 1559,
      "type": "VEC3"
    },
    {
      "bufferView": 52,
      "componentType": 5126,
      "count": 1559,
      "type": "VEC2"
    },
    {
      "bufferView": 53,
      "componentType": 5126,
      "count": 1559,
      "type": "VEC4"
    },
    {
      "bufferView": 54,
      "componentType": 5123,
      "count": 2640,
      "type": "SCALAR"
    },
    {
      "bufferView": 55,
      "componentType": 5126,
      "count": 25214,
      "max": [
        907.4069213867188,
        309.70550537109375,
        699.61181640625
      ],
      "min": [
        -1037.651611328125,
        -234.77340698242188,
        506.6332092285156
      ],
      "type": "VEC3"
    },
    {
      "bufferView": 56,
      "componentType": 5126,
      "count": 25214,
      "type": "VEC3"
    },
    {
      "bufferView": 57,
      "componentType": 5126,
      "count": 25214,
      "type": "VEC2"
    },
    {
      "bufferView": 58,
      "componentType": 5126,
      "count": 25214,
      "type": "VEC4"
    },
    {
      "bufferView": 59,
      "componentType": 5123,
      "count": 69624,
      "type": "SCALAR"
    },
    {
      "bufferView": 60,
      "componentType": 5126,
      "count": 42,
      "max": [
        -8.262900352478027,
        -568.6583862304688,
        348.1973876953125
      ],
      "min": [
        -119.40730285644531,
        -575.5051879882812,
        256.7309875488281
      ],
      "type": "VEC3"
    },
    {
      "bufferView": 61,
      "componentType": 5126,
      "count": 42,
      "type": "VEC3"
    },
    {
      "bufferView": 62,
      "componentType": 5126,
      "count": 42,
      "type": "VEC2"
    },
    {
      "bufferView": 63,
      "componentType": 5126,
      "count": 42,
      "type": "VEC4"
    },
    {
      "bufferView": 64,
      "componentType": 5123,
      "count": 54,
      "type": "SCALAR"
    },
    {
      "bufferView": 65,
      "componentType": 5126,
      "count": 12415,
      "max": [
        830.2938842773438,
        289.70361328125,
        886.1389770507812
      ],
      "min": [
        -958.6978149414062,
        -209.11500549316406,
        274.9595947265625
      ],
      "type": "VEC3"
    },
    {
      "bufferView": 66,
      "componentType": 5126,
      "count": 12415,
      "type": "VEC3"
    },
    {
      "bufferView": 67,
      "componentType": 5126,
      "count": 12415,
      "type": "VEC2"
    },
    {
      "bufferView": 68,
      "componentType": 5126,
      "count": 12415,
      "type": "VEC4"
    },
    {
      "bufferView": 69,
      "componentType": 5123,
      "count": 49488,
      "type": "SCALAR"
    },
    {
      "bufferView": 70,
      "componentType": 5126,
      "count": 11983,
      "max": [
        651.9561767578125,
        324.5262145996094,
        520.5938720703125
      ],
      "min": [
        -783.794189453125,
        -252.28579711914062,
        339.4429931640625
      ],
      "type": "VEC3"
    },
    {
      "bufferView": 71,
      "componentType": 5126,
      "count": 11983,
      "type": "VEC3"
    },
    {
      "bufferView": 72,
      "componentType": 5126,
      "count": 11983,
      "type": "VEC2"
    },
    {
      "bufferView": 73,
      "componentType": 5126,
      "count": 11983,
      "type": "VEC4"
    },
    {
      "bufferView": 74,
      "componentType": 5123,
      "count": 49536,
      "type": "SCALAR"
    },
    {
      "bufferView": 75,
      "componentType": 5126,
      "count": 11996,
      "max": [
        648.8516845703125,
        324.5262145996094,
        520.5938720703125
      ],
      "min": [
        -786.898681640625,
        -252.28570556640625,
        339.4429931640625
      ],
      "type": "VEC3"
    },
    {
      "bufferView": 76,
      "componentType": 5126,
      "count": 11996,
      "type": "VEC3"
    },
    {
      "bufferView": 77,
      "componentType": 5126,
      "count": 11996,
      "type": "VEC2"
    },
    {
      "bufferView": 78,
      "componentType": 5126,
      "count": 11996,
      "type": "VEC4"
    },
    {
      "bufferView": 79,
      "componentType": 5123,
      "count": 49536,
      "type": "SCALAR"
    },
    {
      "bufferView": 80,
      "componentType": 5126,
      "count": 7984,
      "max": [
        283.3501892089844,
        324.5262145996094,
        520.5938720703125
      ],
      "min": [
        -418.2926025390625,
        -252.2855987548828,
        339.4429931640625
      ],
      "type": "VEC3"
    },
    {
      "bufferView": 81,
      "componentType": 5126,
      "count": 7984,
      "type": "VEC3"
    },
    {
      "bufferView": 82,
      "componentType": 5126,
      "count": 7984,
      "type": "VEC2"
    },
    {
      "bufferView": 83,
      "componentType": 5126,
      "count": 7984,
      "type": "VEC4"
    },
    {
      "bufferView": 84,
      "componentType": 5123,
      "count": 33024,
      "type": "SCALAR"
    },
    {
      "bufferView": 85,
      "componentType": 5126,
      "count": 7739,
      "max": [
        820.1740112304688,
        295.25439453125,
        283.6809997558594
      ],
      "min": [
        -577.6201782226562,
        -213.4824981689453,
        -0.30889999866485596
      ],
      "type": "VEC3"
    },
    {
      "bufferView": 86,
      "componentType": 5126,
      "count": 7739,
      "type": "VEC3"
    },
    {
      "bufferView": 87,
      "componentType": 5126,
      "count": 7739,
      "type": "VEC2"
    },
    {
      "bufferView": 88,
      "componentType": 5126,
      "count": 7739,
      "type": "VEC4"
    },
    {
      "bufferView": 89,
      "componentType": 5123,
      "count": 43008,
      "type": "SCALAR"
    },
    {
      "bufferView": 90,
      "componentType": 5126,
      "count": 10248,
      "max": [
        820.1740112304688,
        295.25439453125,
        283.6809997558594
      ],
      "min": [
        -946.2379150390625,
        -213.4824981689453,
        -0.30889999866485596
      ],
      "type": "VEC3"
    },
    {
      "bufferView": 91,
      "componentType": 5126,
      "count": 10248,
      "type": "VEC3"
    },
    {
      "bufferView": 92,
      "componentType": 5126,
      "count": 10248,
      "type": "VEC2"
    },
    {
      "bufferView": 93,
      "componentType": 5126,
      "count": 10248,
      "type": "VEC4"
    },
    {
      "bufferView": 94,
      "componentType": 5123,
      "count": 56832,
      "type": "SCALAR"
    },
    {
      "bufferView": 95,
      "componentType": 5126,
      "count": 7739,
      "max": [
        448.0338134765625,
        289.25689697265625,
        283.6809997558594
      ],
      "min": [
        -946.2379150390625,
        -213.4824981689453,
        -0.30889999866485596
      ],
      "type": "VEC3"
    },
    {
      "bufferView": 96,
      "componentType": 5126,
      "count": 7739,
      "type": "VEC3"
    },
    {
      "bufferView": 97,
      "componentType": 5126,
      "count": 7739,
      "type": "VEC2"
    },
    {
      "bufferView": 98,
      "componentType": 5126,
      "count": 7739,
      "type": "VEC4"
    },
    {
      "bufferView": 99,
      "componentType": 5126,
      "count": 86,
      "max": [
        513.3607788085938,
        221.48719787597656,
        214.3549041748047
      ],
      "min": [
        -644.93310546875,
        -145.12840270996094,
        133.72129821777344
      ],
      "type": "VEC3"
    },
    {
      "bufferView": 100,
      "componentType": 5126,
      "count": 86,
      "type": "VEC3"
    },
    {
      "bufferView": 101,
      "componentType": 5126,
      "count": 86,
      "type": "VEC2"
    },
    {
      "bufferView": 102,
      "componentType": 5126,
      "count": 86,
      "type": "VEC4"
    },
    {
      "bufferView": 103,
      "componentType": 5123,
      "count": 96,
      "type": "SCALAR"
    },
    {
      "bufferView": 104,
      "componentType": 5126,
      "count": 11828,
      "max": [
        522.611572265625,
        246.83450317382812,
        216.9512939453125
      ],
      "min": [
        -654.1837768554688,
        -170.47579956054688,
        98.67289733886719
      ],
      "type": "VEC3"
    },
    {
      "bufferView": 105,
      "componentType": 5126,
      "count": 11828,
      "type": "VEC3"
    },
    {
      "bufferView": 106,
      "componentType": 5126,
      "count": 11828,
      "type": "VEC2"
    },
    {
      "bufferView": 107,
      "componentType": 5126,
      "count": 11828,
      "type": "VEC4"
    },
    {
      "bufferView": 108,
      "componentType": 5123,
      "count": 59484,
      "type": "SCALAR"
    },
    {
      "bufferView": 109,
      "componentType": 5126,
      "count": 5390,
      "max": [
        1194.1705322265625,
        523.4995727539062,
        133.0167999267578
      ],
      "min": [
        -1276.67333984375,
        -478.2618103027344,
        -0.6934000253677368
      ],
      "type": "VEC3"
    },
    {
      "bufferView": 110,
      "componentType": 5126,
      "count": 5390,
      "type": "VEC3"
    },
    {
      "bufferView": 111,
      "componentType": 5126,
      "count": 5390,
      "type": "VEC2"
    },
    {
      "bufferView": 112,
      "componentType": 5126,
      "count": 5390,
      "type": "VEC4"
    },
    {
      "bufferView": 113,
      "componentType": 5123,
      "count": 27552,
      "type": "SCALAR"
    },
    {
      "bufferView": 114,
      "componentType": 5126,
      "count": 1732,
      "max": [
        1299.0263671875,
        114.69149780273438,
        264.7611999511719
      ],
      "min": [
        -1427.434326171875,
        -42.85340118408203,
        79.90480041503906
      ],
      "type": "VEC3"
    },
    {
      "bufferView": 115,
      "componentType": 5126,
      "count": 1732,
      "type": "VEC3"
    },
    {
      "bufferView": 116,
      "componentType": 5126,
      "count": 1732,
      "type": "VEC2"
    },
    {
      "bufferView": 117,
      "componentType": 5126,
      "count": 1732,
      "type": "VEC4"
    },
    {
      "bufferView": 118,
      "componentType": 5123,
      "count": 9126,
      "type": "SCALAR"
    },
    {
      "bufferView": 119,
      "componentType": 5126,
      "count": 12017,
      "max": [
        1799.9080810546875,
        1182.80712890625,
        1429.4332275390625
      ],
      "min": [
        -1920.9459228515625,
        -1105.426025390625,
        1280.513427734375
      ],
      "type": "VEC3"
    },
    {
      "bufferView": 120,
      "componentType": 5126,
      "count": 12017,
      "type": "VEC3"
    },
    {
      "bufferView": 121,
      "componentType": 5126,
      "count": 12017,
      "type": "VEC2"
    },
    {
      "bufferView": 122,
      "componentType": 5126,
      "count": 12017,
      "type": "VEC4"
    },
    {
      "bufferView": 123,
      "componentType": 5123,
      "count": 43452,
      "type": "SCALAR"
    }
  ],
  "bufferViews": [
    {
      "buffer": 0,
      "byteLength": 289944,
      "byteOffset": 0,
      "target": 34962
    },
    {
      "buffer": 0,
      "byteLength": 289944,
      "byteOffset": 289944,
      "target": 34962
    },
    {
      "buffer": 0,
      "byteLength": 193296,
      "byteOffset": 579888,
      "target": 34962
    },
    {
      "buffer": 0,
      "byteLength": 386592,
      "byteOffset": 773184,
      "target": 34962
    },
    {
      "buffer": 0,
      "byteLength": 188616,
      "byteOffset": 1159776,
      "target": 34963
    },
    {
      "buffer": 0,
      "byteLength": 47184,
      "byteOffset": 1348392,
      "target": 34962
    },
    {
      "buffer": 0,
      "byteLength": 47184,
      "byteOffset": 1395576,
      "target": 34962
    },
    {
      "buffer": 0,
      "byteLength": 31456,
      "byteOffset": 1442760,
      "target": 34962
    },
    {
      "buffer": 0,
      "byteLength": 62912,
      "byteOffset": 1474216,
      "target": 34962
    },
    {
      "buffer": 0,
      "byteLength": 20832,
      "byteOffset": 1537128,
      "target": 34963
    },
    {
      "buffer": 0,
      "byteLength": 118176,
      "byteOffset": 1557960,
      "target": 34962
    },
    {
      "buffer": 0,
      "byteLength": 118176,
      "byteOffset": 1676136,
      "target": 34962
    },
    {
      "buffer": 0,
      "byteLength": 78784,
      "byteOffset": 1794312,
      "target": 34962
    },
    {
      "buffer": 0,
      "byteLength": 157568,
      "byteOffset": 1873096,
      "target": 34962
    },
    {
      "buffer": 0,
      "byteLength": 106128,
      "byteOffset": 2030664,
      "target": 34963
    },
    {
      "buffer": 0,
      "byteLength": 27108,
      "byteOffset": 2136792,
      "target": 34962
    },
    {
      "buffer": 0,
      "byteLength": 27108,
      "byteOffset": 2163900,
      "target": 34962
    },
    {
      "buffer": 0,
      "byteLength": 18072,
      "byteOffset": 2191008,
      "target": 34962
    },
    {
      "buffer": 0,
      "byteLength": 36144,
      "byteOffset": 2209080,
      "target": 34962
    },
    {
      "buffer": 0,
      "byteLength": 24516,
      "byteOffset": 2245224,
      "target": 34963
    },
    {
      "buffer": 0,
      "byteLength": 16980,
      "byteOffset": 2269740,
      "target": 34962
    },
    {
      "buffer": 0,
      "byteLength": 16980,
      "byteOffset": 2286720,
      "target": 34962
    },
    {
      "buffer": 0,
      "byteLength": 11320,
      "byteOffset": 2303700,
      "target": 34962
    },
    {
      "buffer": 0,
      "byteLength": 22640,
      "byteOffset": 2315020,
      "target": 34962
    },
    {
      "buffer": 0,
      "byteLength": 4776,
      "byteOffset": 2337660,
      "target": 34963
    },
    {
      "buffer": 0,
      "byteLength": 167232,
      "byteOffset": 2342436,
      "target": 34962
    },
    {
      "buffer": 0,
      "byteLength": 167232,
      "byteOffset": 2509668,
      "target": 34962
    },
    {
      "buffer": 0,
      "byteLength": 111488,
      "byteOffset": 2676900,
      "target": 34962
    },
    {
      "buffer": 0,
      "byteLength": 222976,
      "byteOffset": 2788388,
      "target": 34962
    },
    {
      "buffer": 0,
      "byteLength": 61008,
      "byteOffset": 3011364,
      "target": 34963
    },
    {
      "buffer": 0,
      "byteLength": 71604,
      "byteOffset": 3072372,
      "target": 34962
    },
    {
      "buffer": 0,
      "byteLength": 71604,
      "byteOffset": 3143976,
      "target": 34962
    },
    {
      "buffer": 0,
      "byteLength": 47736,
      "byteOffset": 3215580,
      "target": 34962
    },
    {
      "buffer": 0,
      "byteLength": 95472,
      "byteOffset": 3263316,
      "target": 34962
    },
    {
      "buffer": 0,
      "byteLength": 35256,
      "byteOffset": 3358788,
      "target": 34963
    },
    {
      "buffer": 0,
      "byteLength": 44652,
      "byteOffset": 3394044,
      "target": 34962
    },
    {
      "buffer": 0,
      "byteLength": 44652,
      "byteOffset": 3438696,
      "target": 34962
    },
    {
      "buffer": 0,
      "byteLength": 29768,
      "byteOffset": 3483348,
      "target": 34962
    },
    {
      "buffer": 0,
      "byteLength": 59536,
      "byteOffset": 3513116,
      "target": 34962
    },
    {
      "buffer": 0,
      "byteLength": 16896,
      "byteOffset": 3572652,
      "target": 34963
    },
    {
      "buffer": 0,
      "byteLength": 276,
      "byteOffset": 3589548,
      "target": 34962
    },
    {
      "buffer": 0,
      "byteLength": 276,
      "byteOffset": 3589824,
      "target": 34962
    },
    {
      "buffer": 0,
      "byteLength": 184,
      "byteOffset": 3590100,
      "target": 34962
    },
    {
      "buffer": 0,
      "byteLength": 368,
      "byteOffset": 3590284,
      "target": 34962
    },
    {
      "buffer": 0,
      "byteLength": 128,
      "byteOffset": 3590652,
      "target": 34963
    },
    {
      "buffer": 0,
      "byteLength": 179784,
      "byteOffset": 3590780,
      "target": 34962
    },
    {
      "buffer": 0,
      "byteLength": 179784,
      "byteOffset": 3770564,
      "target": 34962
    },
    {
      "buffer": 0,
      "byteLength": 119856,
      "byteOffset": 3950348,
      "target": 34962
    },
    {
      "buffer": 0,
      "byteLength": 239712,
      "byteOffset": 4070204,
      "target": 34962
    },
    {
      "buffer": 0,
      "byteLength": 42528,
      "byteOffset": 4309916,
      "target": 34963
    },
    {
      "buffer": 0,
      "byteLength": 18708,
      "byteOffset": 4352444,
      "target": 34962
    },
    {
      "buffer": 0,
      "byteLength": 18708,
      "byteOffset": 4371152,
      "target": 34962
    },
    {
      "buffer": 0,
      "byteLength": 12472,
      "byteOffset": 4389860,
      "target": 34962
    },
    {
      "buffer": 0,
      "byteLength": 24944,
      "byteOffset": 4402332,
      "target": 34962
    },
    {
      "buffer": 0,
      "byteLength": 5280,
      "byteOffset": 4427276,
      "target": 34963
    },
    {
      "buffer": 0,
      "byteLength": 302568,
      "byteOffset": 4432556,
      "target": 34962
    },
    {
      "buffer": 0,
      "byteLength": 302568,
      "byteOffset": 4735124,
      "target": 34962
    },
    {
      "buffer": 0,
      "byteLength": 201712,
      "byteOffset": 5037692,
      "target": 34962
    },
    {
      "buffer": 0,
      "byteLength": 403424,
      "byteOffset": 5239404,
      "target": 34962
    },
    {
      "buffer": 0,
      "byteLength": 139248,
      "byteOffset": 5642828,
      "target": 34963
    },
    {
      "buffer": 0,
      "byteLength": 504,
      "byteOffset": 5782076,
      "target": 34962
    },
    {
      "buffer": 0,
      "byteLength": 504,
      "byteOffset": 5782580,
      "target": 34962
    },
    {
      "buffer": 0,
      "byteLength": 336,
      "byteOffset": 5783084,
      "target": 34962
    },
    {
      "buffer": 0,
      "byteLength": 672,
      "byteOffset": 5783420,
      "target": 34962
    },
    {
      "buffer": 0,
      "byteLength": 108,
      "byteOffset": 5784092,
      "target": 34963
    },
    {
      "buffer": 0,
      "byteLength": 148980,
      "byteOffset": 5784200,
      "target": 34962
    },
    {
      "buffer": 0,
      "byteLength": 148980,
      "byteOffset": 5933180,
      "target": 34962
    },
    {
      "buffer": 0,
      "byteLength": 99320,
      "byteOffset": 6082160,
      "target": 34962
    },
    {
      "buffer": 0,
      "byteLength": 198640,
      "byteOffset": 6181480,
      "target": 34962
    },
    {
      "buffer": 0,
      "byteLength": 98976,
      "byteOffset": 6380120,
      "target": 34963
    },
    {
      "buffer": 0,
      "byteLength": 143796,
      "byteOffset": 6479096,
      "target": 34962
    },
    {
      "buffer": 0,
      "byteLength": 143796,
      "byteOffset": 6622892,
      "target": 34962
    },
    {
      "buffer": 0,
      "byteLength": 95864,
      "byteOffset": 6766688,
      "target": 34962
    },
    {
      "buffer": 0,
      "byteLength": 191728,
      "byteOffset": 6862552,
      "target": 34962
    },
    {
      "buffer": 0,
      "byteLength": 99072,
      "byteOffset": 7054280,
      "target": 34963
    },
    {
      "buffer": 0,
      "byteLength": 143952,
      "byteOffset": 7153352,
      "target": 34962
    },
    {
      "buffer": 0,
      "byteLength": 143952,
      "byteOffset": 7297304,
      "target": 34962
    },
    {
      "buffer": 0,
      "byteLength": 95968,
      "byteOffset": 7441256,
      "target": 34962
    },
    {
      "buffer": 0,
      "byteLength": 191936,
      "byteOffset": 7537224,
      "target": 34962
    },
    {
      "buffer": 0,
      "byteLength": 99072,
      "byteOffset": 7729160,
      "target": 34963
    },
    {
      "buffer": 0,
      "byteLength": 95808,
      "byteOffset": 7828232,
      "target": 34962
    },
    {
      "buffer": 0,
      "byteLength": 95808,
      "byteOffset": 7924040,
      "target": 34962
    },
    {
      "buffer": 0,
      "byteLength": 63872,
      "byteOffset": 8019848,
      "target": 34962
    },
    {
      "buffer": 0,
      "byteLength": 127744,
      "byteOffset": 8083720,
      "target": 34962
    },
    {
      "buffer": 0,
      "byteLength": 66048,
      "byteOffset": 8211464,
      "target": 34963
    },
    {
      "buffer": 0,
      "byteLength": 92868,
      "byteOffset": 8277512,
      "target": 34962
    },
    {
      "buffer": 0,
      "byteLength": 92868,
      "byteOffset": 8370380,
      "target": 34962
    },
    {
      "buffer": 0,
      "byteLength": 61912,
      "byteOffset": 8463248,
      "target": 34962
    },
    {
      "buffer": 0,
      "byteLength": 123824,
      "byteOffset": 8525160,
      "target": 34962
    },
    {
      "buffer": 0,
      "byteLength": 86016,
      "byteOffset": 8648984,
      "target": 34963
    },
    {
      "buffer": 0,
      "byteLength": 122976,
      "byteOffset": 8735000,
      "target": 34962
    },
    {
      "buffer": 0,
      "byteLength": 122976,
      "byteOffset": 8857976,
      "target": 34962
    },
    {
      "buffer": 0,
      "byteLength": 81984,
      "byteOffset": 8980952,
      "target": 34962
    },
    {
      "buffer": 0,
      "byteLength": 163968,
      "byteOffset": 9062936,
      "target": 34962
    },
    {
      "buffer": 0,
      "byteLength": 113664,
      "byteOffset": 9226904,
      "target": 34963
    },
    {
      "buffer": 0,
      "byteLength": 92868,
      "byteOffset": 9340568,
      "target": 34962
    },
    {
      "buffer": 0,
      "byteLength": 92868,
      "byteOffset": 9433436,
      "target": 34962
    },
    {
      "buffer": 0,
      "byteLength": 61912,
      "byteOffset": 9526304,
      "target": 34962
    },
    {
      "buffer": 0,
      "byteLength": 123824,
      "byteOffset": 9588216,
      "target": 34962
    },
    {
      "buffer": 0,
      "byteLength": 1032,
      "byteOffset": 9712040,
      "target": 34962
    },
    {
      "buffer": 0,
      "byteLength": 1032,
      "byteOffset": 9713072,
      "target": 34962
    },
    {
      "buffer": 0,
      "byteLength": 688,
      "byteOffset": 9714104,
      "target": 34962
    },
    {
      "buffer": 0,
      "byteLength": 1376,
      "byteOffset": 9714792,
      "target": 34962
    },
    {
      "buffer": 0,
      "byteLength": 192,
      "byteOffset": 9716168,
      "target": 34963
    },
    {
      "buffer": 0,
      "byteLength": 141936,
      "byteOffset": 9716360,
      "target": 34962
    },
    {
      "buffer": 0,
      "byteLength": 141936,
      "byteOffset": 9858296,
      "target": 34962
    },
    {
      "buffer": 0,
      "byteLength": 94624,
      "byteOffset": 10000232,
      "target": 34962
    },
    {
      "buffer": 0,
      "byteLength": 189248,
      "byteOffset": 10094856,
      "target": 34962
    },
    {
      "buffer": 0,
      "byteLength": 118968,
      "byteOffset": 10284104,
      "target": 34963
    },
    {
      "buffer": 0,
      "byteLength": 64680,
      "byteOffset": 10403072,
      "target": 34962
    },
    {
      "buffer": 0,
      "byteLength": 64680,
      "byteOffset": 10467752,
      "target": 34962
    },
    {
      "buffer": 0,
      "byteLength": 43120,
      "byteOffset": 10532432,
      "target": 34962
    },
    {
      "buffer": 0,
      "byteLength": 86240,
      "byteOffset": 10575552,
      "target": 34962
    },
    {
      "buffer": 0,
      "byteLength": 55104,
      "byteOffset": 10661792,
      "target": 34963
    },
    {
      "buffer": 0,
      "byteLength": 20784,
      "byteOffset": 10716896,
      "target": 34962
    },
    {
      "buffer": 0,
      "byteLength": 20784,
      "byteOffset": 10737680,
      "target": 34962
    },
    {
      "buffer": 0,
      "byteLength": 13856,
      "byteOffset": 10758464,
      "target": 34962
    },
    {
      "buffer": 0,
      "byteLength": 27712,
      "byteOffset": 10772320,
      "target": 34962
    },
    {
      "buffer": 0,
      "byteLength": 18252,
      "byteOffset": 10800032,
      "target": 34963
    },
    {
      "buffer": 0,
      "byteLength": 144204,
      "byteOffset": 10818284,
      "target": 34962
    },
    {
      "buffer": 0,
      "byteLength": 144204,
      "byteOffset": 10962488,
      "target": 34962
    },
    {
      "buffer": 0,
      "byteLength": 96136,
      "byteOffset": 11106692,
      "target": 34962
    },
    {
      "buffer": 0,
      "byteLength": 192272,
      "byteOffset": 11202828,
      "target": 34962
    },
    {
      "buffer": 0,
      "byteLength": 86904,
      "byteOffset": 11395100,
      "target": 34963
    }
  ],
  "samplers": [
    {
      "magFilter": 9729,
      "minFilter": 9987
    }
  ],
  "buffers": [
    {
      "uri": "Sponza_data.bin",
      "byteLength": 11482004
    }
  ]
}